<?xml version="1.0" encoding="utf-8"?>
<!-- Generator: Adobe Illustrator 28.0.0, SVG Export Plug-In . SVG Version: 6.00 Build 0)  -->
<svg version="1.1" id="Layer_1" xmlns="http://www.w3.org/2000/svg" xmlns:xlink="http://www.w3.org/1999/xlink" x="0px" y="0px"
	 viewBox="0 0 3000 3448.4" style="enable-background:new 0 0 3000 3448.4;" xml:space="preserve">
<style type="text/css">
	.st0{fill:#FFFFFF;stroke:#FFFFFF;stroke-miterlimit:10;}
	.st1{fill:#FFFFFF;}
	.st2{font-family:'YujiSyuku-Regular';}
	.st3{font-size:600px;}
</style>
<g>
	<path class="st0" d="M1858.9,2362.21c-5.36,3.43-13.04,7-21.28,5.52c-19.27-3.46-28.6-32.14-35.47-54.13
		c-23.15-74.08-34.73-111.12-40.54-135.36c-11.08-46.21-9.83-28.59-33.43-114.5c-15.49-56.36-25.9-99.23-46.1-182.7
		c-28.18-116.43-24.83-108.43-33.06-136.09c-27.83-93.85-41.74-140.77-48.03-152.84c0,0-5.19-14.89-10.65-35.04
		c-1.93-7.14-4.87-21.63,2.66-29.38c8.31-8.55,26.04-4.28,32.51-2.66c99.89,24.84,473.62,308.2,489.38,319.44
		c2.25,1.61,11.97,8.21,19.64,20.54c4.66,7.5,6.97,14.58,8.19,19.37c-0.3,6.65-1.09,15.15-3.12,24.85
		c-1.3,6.25-4.57,19.96-12.44,36.38c-97.13,202.96-254.91,400.04-254.91,400.04C1867.8,2351.17,1863.35,2356.69,1858.9,2362.21z"/>
	<path class="st0" d="M1769.12,2061c-126.25,8.66-237.19,14.55-329.02,18.68c-201.32,9.05-266.27,7.6-345.89-12.13
		c-92.78-23-164.22-60.58-210.88-89.51c-40.31-26.47-99.41-72.08-151.71-144.12c0,0-53-73.01-83.95-168.12
		c-81.95-251.84-9.81-940.19,64.18-939.05c23.64,0.37-85.67,639.19,246.59,959.31c212.74,204.98,539.92,215.13,790.42,189.16
		C1755.61,1937.14,1762.36,1999.07,1769.12,2061z"/>
</g>
<g>
	<path class="st0" d="M1219.57,419.38c5.62-3,13.55-5.95,21.65-3.83c18.93,4.96,25.98,34.29,31.09,56.76
		c17.24,75.68,25.86,113.51,29.74,138.13c7.41,46.95,7.55,29.28,24.3,116.78c10.99,57.4,17.99,100.97,31.56,185.76
		c18.92,118.29,16.21,110.05,22.23,138.27c20.34,95.75,30.51,143.62,35.83,156.16c0,0,4,15.25,7.85,35.77
		c1.36,7.27,3.15,21.95-4.96,29.08c-8.96,7.87-26.3,2.2-32.61,0.1c-97.62-32.64-447.86-344.58-462.68-357.02
		c-2.12-1.78-11.29-9.12-17.96-22.02c-4.05-7.85-5.8-15.08-6.64-19.96c0.82-6.61,2.29-15.02,5.07-24.52
		c1.79-6.13,6.13-19.54,15.26-35.29c112.83-194.67,285.65-378.7,285.65-378.7C1209.83,429.7,1214.7,424.54,1219.57,419.38z"/>
	<path class="st0" d="M1285.32,726.74c126.54,1.32,237.6,4.19,329.48,7.32c201.41,6.85,266.04,13.41,343.86,39.36
		c90.68,30.24,158.94,73.34,203.16,105.85c38.1,29.57,93.42,79.69,139.88,155.63c0,0,47.07,76.96,70.43,174.22
		c61.85,257.51-64.33,938.04-138,931.06c-23.54-2.23,135.79-630.44-170.2-975.77c-195.93-221.1-521.29-257-773.05-250.87
		C1289.03,851.28,1287.18,789.01,1285.32,726.74z"/>
</g>
<text transform="matrix(1 0 0 1 580.5392 3151.9736)" class="st1 st2 st3">spiral</text>
</svg>
