<?xml version="1.0" encoding="utf-8"?>
<!-- Generator: Adobe Illustrator 28.0.0, SVG Export Plug-In . SVG Version: 6.00 Build 0)  -->
<svg version="1.1" id="Layer_1" xmlns="http://www.w3.org/2000/svg" xmlns:xlink="http://www.w3.org/1999/xlink" x="0px" y="0px"
	 viewBox="0 0 1938.36 2180.66" style="enable-background:new 0 0 1938.36 2180.66;" xml:space="preserve">
<style type="text/css">
	.st0{fill:none;stroke:#000000;stroke-width:10;stroke-miterlimit:10;}
	.st1{stroke:#000000;stroke-width:10;stroke-miterlimit:10;}
</style>
<g>
	<path class="st0" d="M101.91,69.16c13.8-7.01,36.62-15.77,63.11-11.98c10.88,1.55,34.74,6.99,81.95,55.91
		c41.38,42.88,44.83,61.28,82.15,102.34c24.64,27.11,45.46,43.65,69.91,63.07c230.59,183.21,519.96,345.86,519.96,345.86
		c140.69,79.08,298.8,167.27,469.87,229.46c96.44,35.06,144.66,52.59,191.38,62.71c65.34,14.15,128.66,36.66,193.9,51.23
		c16.76,3.74,51.3,11.24,77.45,40.35c17.34,19.29,24.61,40.98,27.99,55.7c0.76,9.58,0.4,23.49-6.22,37.56
		c-15.7,33.39-55.59,44.23-78.9,50.63c-57.97,15.9-115.03,35.2-173.45,49.32c-43.99,10.63-88.86,31.24-178.59,72.45
		c-158.06,72.59-281.14,142.54-317.4,163.26c-245.37,140.19-368.06,210.29-435.06,265.48c-243.73,200.78-365.59,301.18-414.96,362.5
		c-9.28,11.53-41.82,53.63-93.59,62.12c-19.75,3.24-36.78,0.69-48.02-1.96c-11.88-7.36-27.38-19.64-36.35-39.15
		c-15.76-34.3-1.87-70.39,6.19-96.11c16.86-53.8,12.36-112.14,21.69-167.74c20.95-124.78,32.88-273.51,39.08-350.66
		c15.85-197.44,11.89-350.03,8.08-482.41c-2.86-99.19-6.42-213.49-23.98-363.26c-16.61-141.71-29.99-255.79-59.06-328.57
		c-10.15-25.4-15.59-48.2-26.48-93.81c-10.5-44-12.21-62.37-5.61-81.73C66.51,93.78,88.86,77.19,101.91,69.16z"/>
	<path class="st1" d="M1824.11,1142.54c-6.63,3.29-28.76,9.66-72.76,22.26c-16.1,4.61-21.53,6.08-37.67,10.8
		c-21.18,6.19-24.01,7.21-39.57,11.62c-19.34,5.48-29.01,8.22-37.99,10.34c-17.2,4.06-19.2,3.65-27.15,6.91
		c-7.46,3.06-10.82,5.53-13.16,3.97c-4.31-2.88,0.53-15.72,3.81-29.83c2.92-12.57,3.45-24.5,4.5-48.35
		c1.15-25.91-2.38-44.66-8.7-78.23c-4.75-25.23-8.14-43.22-16.37-66.23c-15.91-44.48-37.32-72.49-31.28-77.4
		c2.14-1.74,5.47,1.22,21.74,5.75c10.32,2.87,16.74,3.84,22.54,5.02c23.69,4.79,59.61,17.52,93.22,26.71
		c43.88,12,59.78,11.39,108.86,26.99c9.88,3.14,22.6,7.41,36.72,17.2c8.54,5.92,27.34,19.31,38.4,44.27
		c3.86,8.71,17.02,38.43,4.12,67.02C1863.63,1122.94,1844.15,1132.6,1824.11,1142.54z"/>
	<path class="st1" d="M91.66,2035.69c0.39-25.04,6.85-48.46,15.09-78.33c2.41-8.74,4.6-17.55,7.17-26.25
		c2.02-6.8,2.54-8.15,3.11-11.57c1.31-7.97,0.24-11.56,0.63-23.37c0.03-0.95,0.32-4.98,0.9-13.05c0.85-11.84,1.28-17.76,1.82-23.85
		c0.54-6.04,1.01-11.35,1.9-18.62c0.99-8.05,1.97-14.34,2.63-18.48c1.84-11.67,2.06-10.94,2.96-17.55c1.9-14.05,0.77-16.3,2.6-17.44
		c5.47-3.42,20.15,13.81,43.09,33.23c0,0,18.85,15.43,39.03,28.9c21.57,14.4,39.43,21.1,71.42,33.09
		c24.04,9.01,41.18,15.43,65.12,20.32c46.28,9.44,81.33,5.64,82.41,13.35c0.38,2.73-3.88,4.05-16.19,15.61
		c-7.8,7.34-11.96,12.33-15.97,16.68c-16.37,17.78-45.87,41.91-71.15,65.9c-24.45,23.2-35.02,36.85-54.62,56.15
		c-8.46,8.33-14.79,15.11-24.87,22.98c-11.71,9.15-26.28,20.32-48.14,27.1c-8.43,2.62-23.6,7.16-43.36,5.29
		c-10.33-0.98-28.86-2.73-43.29-14.66C90.79,2091.98,91.33,2057.4,91.66,2035.69z"/>
	<path class="st1" d="M187.48,64.69c6.9,3.57,16.03,11.06,34.27,26.05c9.89,8.12,14.84,12.19,21.35,18.39
		c3.02,2.87,13.81,13.28,31.1,35.03c10.55,13.27,7.53,10.64,24.37,32.75c5.06,6.64,13.56,17.27,30.55,38.53
		c8.48,10.61,10.28,12.8,13.68,16.19c11.86,11.82,20.02,15.14,19.09,18.47c-1.14,4.11-14.12,1.27-30.72,5.01
		c-7.63,1.72-15.7,4.76-33.02,15.84c-29.82,19.07-52.14,39.64-61.8,48.74c-13.44,12.66-28.73,27.08-47.56,48.91
		c-35.19,40.79-58.78,79.71-63.99,76.82c-1.88-1.04,0.82-6.3-1.6-19.06c-1.06-5.62-2.23-7.98-3.97-13.98
		c-3.25-11.15-3.98-19.35-4.68-24.35c-0.58-4.2-2.86-18.6-23.7-86.07c-10.94-35.41-14.92-46.37-22.29-73.46
		c-1.27-4.68-5.22-19.29-9.19-38.8c-4.41-21.66-6.61-32.49-6.3-41.78c0.96-28.45,16.05-49.19,19.52-53.77
		c4.82-6.35,24.12-30.12,58.68-36.47C137.75,56.47,163.22,52.15,187.48,64.69z"/>
	<g>
		<g>
			<path d="M1140.14,936.09c7.72,0,7.73-12,0-12C1132.42,924.09,1132.41,936.09,1140.14,936.09L1140.14,936.09z"/>
		</g>
	</g>
	<g>
		<g>
			<path d="M779.24,1153.73c9.42,0,18.44-8.28,18-18c-0.44-9.75-7.91-18-18-18c-9.42,0-18.44,8.28-18,18
				C761.67,1145.48,769.14,1153.73,779.24,1153.73L779.24,1153.73z"/>
		</g>
	</g>
	<g>
		<g>
			<path d="M763.47,1233.78c9.42,0,18.44-8.28,18-18c-0.44-9.75-7.91-18-18-18c-9.42,0-18.44,8.28-18,18
				C745.91,1225.53,753.38,1233.78,763.47,1233.78L763.47,1233.78z"/>
		</g>
	</g>
	<g>
		<g>
			<path d="M707.38,1265.74c9.42,0,18.44-8.28,18-18c-0.44-9.75-7.91-18-18-18c-9.42,0-18.44,8.28-18,18
				C689.82,1257.49,697.29,1265.74,707.38,1265.74L707.38,1265.74z"/>
		</g>
	</g>
	<g>
		<g>
			<path d="M642.68,1231.54c9.42,0,18.44-8.28,18-18c-0.44-9.75-7.91-18-18-18c-9.42,0-18.44,8.28-18,18
				C625.11,1223.29,632.59,1231.54,642.68,1231.54L642.68,1231.54z"/>
		</g>
	</g>
	<g>
		<g>
			<path d="M599.94,1162.21c9.42,0,18.44-8.28,18-18c-0.44-9.75-7.91-18-18-18c-9.42,0-18.44,8.28-18,18
				C582.38,1153.97,589.85,1162.21,599.94,1162.21L599.94,1162.21z"/>
		</g>
	</g>
	<g>
		<g>
			<path d="M607.03,1061.27c9.42,0,18.44-8.28,18-18c-0.44-9.75-7.91-18-18-18c-9.42,0-18.44,8.28-18,18
				C589.47,1053.02,596.94,1061.27,607.03,1061.27L607.03,1061.27z"/>
		</g>
	</g>
	<g>
		<g>
			<path d="M662.41,1039.4c9.42,0,18.44-8.28,18-18c-0.44-9.75-7.91-18-18-18c-9.42,0-18.44,8.28-18,18
				C644.84,1031.16,652.32,1039.4,662.41,1039.4L662.41,1039.4z"/>
		</g>
	</g>
	<g>
		<g>
			<path d="M725.02,1081.26c9.42,0,18.44-8.28,18-18c-0.44-9.75-7.91-18-18-18c-9.42,0-18.44,8.28-18,18
				C707.45,1073.01,714.93,1081.26,725.02,1081.26L725.02,1081.26z"/>
		</g>
	</g>
	<g>
		<g>
			<path d="M827.1,1294.43c9.42,0,18.44-8.28,18-18c-0.44-9.75-7.91-18-18-18c-9.42,0-18.44,8.28-18,18
				C809.54,1286.18,817.01,1294.43,827.1,1294.43L827.1,1294.43z"/>
		</g>
	</g>
	<g>
		<g>
			<path d="M772.75,1335.09c9.42,0,18.44-8.28,18-18c-0.44-9.75-7.91-18-18-18c-9.42,0-18.44,8.28-18,18
				C755.18,1326.85,762.65,1335.09,772.75,1335.09L772.75,1335.09z"/>
		</g>
	</g>
	<g>
		<g>
			<path d="M689.15,1369.8c9.42,0,18.44-8.28,18-18c-0.44-9.75-7.91-18-18-18c-9.42,0-18.44,8.28-18,18
				C671.59,1361.56,679.06,1369.8,689.15,1369.8L689.15,1369.8z"/>
		</g>
	</g>
	<g>
		<g>
			<path d="M604.97,1324.1c9.42,0,18.44-8.28,18-18c-0.44-9.75-7.91-18-18-18c-9.42,0-18.44,8.28-18,18
				C587.4,1315.85,594.87,1324.1,604.97,1324.1L604.97,1324.1z"/>
		</g>
	</g>
	<g>
		<g>
			<path d="M551.46,1241.53c9.42,0,18.44-8.28,18-18c-0.44-9.75-7.91-18-18-18c-9.42,0-18.44,8.28-18,18
				C533.89,1233.28,541.36,1241.53,551.46,1241.53L551.46,1241.53z"/>
		</g>
	</g>
	<g>
		<g>
			<path d="M507.36,1147.13c9.42,0,18.44-8.28,18-18c-0.44-9.75-7.91-18-18-18c-9.42,0-18.44,8.28-18,18
				C489.8,1138.88,497.27,1147.13,507.36,1147.13L507.36,1147.13z"/>
		</g>
	</g>
	<g>
		<g>
			<path d="M492.45,1103.94c9.42,0,18.44-8.28,18-18c-0.44-9.75-7.91-18-18-18c-9.42,0-18.44,8.28-18,18
				C474.88,1095.7,482.35,1103.94,492.45,1103.94L492.45,1103.94z"/>
		</g>
	</g>
	<g>
		<g>
			<path d="M554.85,1026.39c9.42,0,18.44-8.28,18-18c-0.44-9.75-7.91-18-18-18c-9.42,0-18.44,8.28-18,18
				C537.29,1018.14,544.76,1026.39,554.85,1026.39L554.85,1026.39z"/>
		</g>
	</g>
	<g>
		<g>
			<path d="M610.94,994.43c9.42,0,18.44-8.28,18-18c-0.44-9.75-7.91-18-18-18c-9.42,0-18.44,8.28-18,18
				C593.38,986.18,600.85,994.43,610.94,994.43L610.94,994.43z"/>
		</g>
	</g>
	<g>
		<g>
			<path d="M659.71,966.64c9.42,0,18.44-8.28,18-18c-0.44-9.75-7.91-18-18-18c-9.42,0-18.44,8.28-18,18
				C642.15,958.4,649.62,966.64,659.71,966.64L659.71,966.64z"/>
		</g>
	</g>
	<g>
		<g>
			<path d="M780.79,1020.4c9.42,0,18.44-8.28,18-18c-0.44-9.75-7.91-18-18-18c-9.42,0-18.44,8.28-18,18
				C763.23,1012.16,770.7,1020.4,780.79,1020.4L780.79,1020.4z"/>
		</g>
	</g>
	<g>
		<g>
			<path d="M830.11,1118.29c9.42,0,18.44-8.28,18-18c-0.44-9.75-7.91-18-18-18c-9.42,0-18.44,8.28-18,18
				C812.54,1110.04,820.01,1118.29,830.11,1118.29L830.11,1118.29z"/>
		</g>
	</g>
	<g>
		<g>
			<path d="M861.33,1207.1c9.42,0,18.44-8.28,18-18c-0.44-9.75-7.91-18-18-18c-9.42,0-18.44,8.28-18,18
				C843.76,1198.85,851.24,1207.1,861.33,1207.1L861.33,1207.1z"/>
		</g>
	</g>
	<g>
		<g>
			<path d="M735.38,970.02c9.42,0,18.44-8.28,18-18c-0.44-9.75-7.91-18-18-18c-9.42,0-18.44,8.28-18,18
				C717.82,961.77,725.29,970.02,735.38,970.02L735.38,970.02z"/>
		</g>
	</g>
	<g>
		<g>
			<path d="M475.63,1194.42c9.42,0,18.44-8.28,18-18c-0.44-9.75-7.91-18-18-18c-9.42,0-18.44,8.28-18,18
				C458.07,1186.17,465.54,1194.42,475.63,1194.42L475.63,1194.42z"/>
		</g>
	</g>
	<g>
		<g>
			<path d="M413.57,1085.49c9.42,0,18.44-8.28,18-18c-0.44-9.75-7.91-18-18-18c-9.42,0-18.44,8.28-18,18
				C396,1077.24,403.48,1085.49,413.57,1085.49L413.57,1085.49z"/>
		</g>
	</g>
	<g>
		<g>
			<path d="M474.36,988.6c9.42,0,18.44-8.28,18-18c-0.44-9.75-7.91-18-18-18c-9.42,0-18.44,8.28-18,18
				C456.8,980.36,464.27,988.6,474.36,988.6L474.36,988.6z"/>
		</g>
	</g>
	<g>
		<g>
			<path d="M548.2,949.36c9.42,0,18.44-8.28,18-18c-0.44-9.75-7.91-18-18-18c-9.42,0-18.44,8.28-18,18
				C530.63,941.11,538.11,949.36,548.2,949.36L548.2,949.36z"/>
		</g>
	</g>
	<g>
		<g>
			<path d="M690.98,882.15c9.42,0,18.44-8.28,18-18c-0.44-9.75-7.91-18-18-18c-9.42,0-18.44,8.28-18,18
				C673.41,873.91,680.89,882.15,690.98,882.15L690.98,882.15z"/>
		</g>
	</g>
	<g>
		<g>
			<path d="M840.86,986.31c9.42,0,18.44-8.28,18-18c-0.44-9.75-7.91-18-18-18c-9.42,0-18.44,8.28-18,18
				C823.3,978.06,830.77,986.31,840.86,986.31L840.86,986.31z"/>
		</g>
	</g>
	<g>
		<g>
			<path d="M898.91,1142.8c9.42,0,18.44-8.28,18-18c-0.44-9.75-7.91-18-18-18c-9.42,0-18.44,8.28-18,18
				C881.34,1134.55,888.81,1142.8,898.91,1142.8L898.91,1142.8z"/>
		</g>
	</g>
	<g>
		<g>
			<path d="M920.76,1220.88c9.42,0,18.44-8.28,18-18c-0.44-9.75-7.91-18-18-18c-9.42,0-18.44,8.28-18,18
				C903.2,1212.63,910.67,1220.88,920.76,1220.88L920.76,1220.88z"/>
		</g>
	</g>
	<g>
		<g>
			<path d="M915.47,1305.94c9.42,0,18.44-8.28,18-18c-0.44-9.75-7.91-18-18-18c-9.42,0-18.44,8.28-18,18
				C897.91,1297.7,905.38,1305.94,915.47,1305.94L915.47,1305.94z"/>
		</g>
	</g>
	<g>
		<g>
			<path d="M807.42,1404.3c9.42,0,18.44-8.28,18-18c-0.44-9.75-7.91-18-18-18c-9.42,0-18.44,8.28-18,18
				C789.85,1396.05,797.33,1404.3,807.42,1404.3L807.42,1404.3z"/>
		</g>
	</g>
	<g>
		<g>
			<path d="M666.82,1430.65c9.42,0,18.44-8.28,18-18c-0.44-9.75-7.91-18-18-18c-9.42,0-18.44,8.28-18,18
				C649.26,1422.4,656.73,1430.65,666.82,1430.65L666.82,1430.65z"/>
		</g>
	</g>
	<g>
		<g>
			<path d="M600.71,1389.1c9.42,0,18.44-8.28,18-18c-0.44-9.75-7.91-18-18-18c-9.42,0-18.44,8.28-18,18
				C583.15,1380.85,590.62,1389.1,600.71,1389.1L600.71,1389.1z"/>
		</g>
	</g>
	<g>
		<g>
			<path d="M503.55,1303c9.42,0,18.44-8.28,18-18c-0.44-9.75-7.91-18-18-18c-9.42,0-18.44,8.28-18,18
				C485.99,1294.75,493.46,1303,503.55,1303L503.55,1303z"/>
		</g>
	</g>
	<g>
		<g>
			<path d="M408.5,1235.5c9.42,0,18.44-8.28,18-18c-0.44-9.75-7.91-18-18-18c-9.42,0-18.44,8.28-18,18
				C390.94,1227.25,398.41,1235.5,408.5,1235.5L408.5,1235.5z"/>
		</g>
	</g>
	<g>
		<g>
			<path d="M387.86,1159.55c9.42,0,18.44-8.28,18-18c-0.44-9.75-7.91-18-18-18c-9.42,0-18.44,8.28-18,18
				C370.3,1151.3,377.77,1159.55,387.86,1159.55L387.86,1159.55z"/>
		</g>
	</g>
	<g>
		<g>
			<path d="M348.42,1000.95c9.42,0,18.44-8.28,18-18c-0.44-9.75-7.91-18-18-18c-9.42,0-18.44,8.28-18,18
				C330.86,992.7,338.33,1000.95,348.42,1000.95L348.42,1000.95z"/>
		</g>
	</g>
	<g>
		<g>
			<path d="M329.62,918.3c9.42,0,18.44-8.28,18-18c-0.44-9.75-7.91-18-18-18c-9.42,0-18.44,8.28-18,18
				C312.06,910.05,319.53,918.3,329.62,918.3L329.62,918.3z"/>
		</g>
	</g>
	<g>
		<g>
			<path d="M321.48,1092.69c9.42,0,18.44-8.28,18-18c-0.44-9.75-7.91-18-18-18c-9.42,0-18.44,8.28-18,18
				C303.91,1084.45,311.39,1092.69,321.48,1092.69L321.48,1092.69z"/>
		</g>
	</g>
	<g>
		<g>
			<path d="M302.45,1188.41c9.42,0,18.44-8.28,18-18c-0.44-9.75-7.91-18-18-18c-9.42,0-18.44,8.28-18,18
				C284.89,1180.16,292.36,1188.41,302.45,1188.41L302.45,1188.41z"/>
		</g>
	</g>
	<g>
		<g>
			<path d="M347.14,1301.58c9.42,0,18.44-8.28,18-18c-0.44-9.75-7.91-18-18-18c-9.42,0-18.44,8.28-18,18
				C329.57,1293.34,337.04,1301.58,347.14,1301.58L347.14,1301.58z"/>
		</g>
	</g>
	<g>
		<g>
			<path d="M451.62,1380.68c9.42,0,18.44-8.28,18-18c-0.44-9.75-7.91-18-18-18c-9.42,0-18.44,8.28-18,18
				C434.06,1372.44,441.53,1380.68,451.62,1380.68L451.62,1380.68z"/>
		</g>
	</g>
	<g>
		<g>
			<path d="M528.74,1401.82c9.42,0,18.44-8.28,18-18c-0.44-9.75-7.91-18-18-18c-9.42,0-18.44,8.28-18,18
				C511.17,1393.57,518.65,1401.82,528.74,1401.82L528.74,1401.82z"/>
		</g>
	</g>
	<g>
		<g>
			<path d="M574.39,1472c9.42,0,18.44-8.28,18-18c-0.44-9.75-7.91-18-18-18c-9.42,0-18.44,8.28-18,18
				C556.82,1463.75,564.29,1472,574.39,1472L574.39,1472z"/>
		</g>
	</g>
	<g>
		<g>
			<path d="M674.65,1513.9c9.42,0,18.44-8.28,18-18c-0.44-9.75-7.91-18-18-18c-9.42,0-18.44,8.28-18,18
				C657.08,1505.65,664.56,1513.9,674.65,1513.9L674.65,1513.9z"/>
		</g>
	</g>
	<g>
		<g>
			<path d="M770.41,1493.28c9.42,0,18.44-8.28,18-18c-0.44-9.75-7.91-18-18-18c-9.42,0-18.44,8.28-18,18
				C752.85,1485.03,760.32,1493.28,770.41,1493.28L770.41,1493.28z"/>
		</g>
	</g>
	<g>
		<g>
			<path d="M903.75,1414.48c9.42,0,18.44-8.28,18-18c-0.44-9.75-7.91-18-18-18c-9.42,0-18.44,8.28-18,18
				C886.19,1406.23,893.66,1414.48,903.75,1414.48L903.75,1414.48z"/>
		</g>
	</g>
	<g>
		<g>
			<path d="M970.29,1362.42c9.42,0,18.44-8.28,18-18c-0.44-9.75-7.91-18-18-18c-9.42,0-18.44,8.28-18,18
				C952.72,1354.17,960.2,1362.42,970.29,1362.42L970.29,1362.42z"/>
		</g>
	</g>
	<g>
		<g>
			<path d="M1002.7,1290.2c9.42,0,18.44-8.28,18-18c-0.44-9.75-7.91-18-18-18c-9.42,0-18.44,8.28-18,18
				C985.13,1281.95,992.61,1290.2,1002.7,1290.2L1002.7,1290.2z"/>
		</g>
	</g>
	<g>
		<g>
			<path d="M970.21,1178.56c9.42,0,18.44-8.28,18-18c-0.44-9.75-7.91-18-18-18c-9.42,0-18.44,8.28-18,18
				C952.65,1170.31,960.12,1178.56,970.21,1178.56L970.21,1178.56z"/>
		</g>
	</g>
	<g>
		<g>
			<path d="M939.54,1080.04c9.42,0,18.44-8.28,18-18c-0.44-9.75-7.91-18-18-18c-9.42,0-18.44,8.28-18,18
				C921.97,1071.79,929.44,1080.04,939.54,1080.04L939.54,1080.04z"/>
		</g>
	</g>
	<g>
		<g>
			<path d="M914.33,1001.04c9.42,0,18.44-8.28,18-18c-0.44-9.75-7.91-18-18-18c-9.42,0-18.44,8.28-18,18
				C896.76,992.79,904.23,1001.04,914.33,1001.04L914.33,1001.04z"/>
		</g>
	</g>
	<g>
		<g>
			<path d="M798.89,902.72c9.42,0,18.44-8.28,18-18c-0.44-9.75-7.91-18-18-18c-9.42,0-18.44,8.28-18,18
				C781.32,894.47,788.8,902.72,798.89,902.72L798.89,902.72z"/>
		</g>
	</g>
	<g>
		<g>
			<path d="M757.19,844.43c9.42,0,18.44-8.28,18-18c-0.44-9.75-7.91-18-18-18c-9.42,0-18.44,8.28-18,18
				C739.62,836.18,747.1,844.43,757.19,844.43L757.19,844.43z"/>
		</g>
	</g>
	<g>
		<g>
			<path d="M598.29,878.38c9.42,0,18.44-8.28,18-18c-0.44-9.75-7.91-18-18-18c-9.42,0-18.44,8.28-18,18
				C580.73,870.13,588.2,878.38,598.29,878.38L598.29,878.38z"/>
		</g>
	</g>
	<g>
		<g>
			<path d="M400.33,943.08c9.42,0,18.44-8.28,18-18c-0.44-9.75-7.91-18-18-18c-9.42,0-18.44,8.28-18,18
				C382.76,934.83,390.24,943.08,400.33,943.08L400.33,943.08z"/>
		</g>
	</g>
	<g>
		<g>
			<path d="M430.92,857.75c9.42,0,18.44-8.28,18-18c-0.44-9.75-7.91-18-18-18c-9.42,0-18.44,8.28-18,18
				C413.36,849.5,420.83,857.75,430.92,857.75L430.92,857.75z"/>
		</g>
	</g>
	<g>
		<g>
			<path d="M498.03,836.49c9.42,0,18.44-8.28,18-18c-0.44-9.75-7.91-18-18-18c-9.42,0-18.44,8.28-18,18
				C480.46,828.24,487.94,836.49,498.03,836.49L498.03,836.49z"/>
		</g>
	</g>
	<g>
		<g>
			<path d="M597.47,802.46c9.42,0,18.44-8.28,18-18c-0.44-9.75-7.91-18-18-18c-9.42,0-18.44,8.28-18,18
				C579.91,794.21,587.38,802.46,597.47,802.46L597.47,802.46z"/>
		</g>
	</g>
	<g>
		<g>
			<path d="M655.41,794.91c9.42,0,18.44-8.28,18-18c-0.44-9.75-7.91-18-18-18c-9.42,0-18.44,8.28-18,18
				C637.85,786.66,645.32,794.91,655.41,794.91L655.41,794.91z"/>
		</g>
	</g>
	<g>
		<g>
			<path d="M922.35,925.74c9.42,0,18.44-8.28,18-18c-0.44-9.75-7.91-18-18-18c-9.42,0-18.44,8.28-18,18
				C904.78,917.49,912.26,925.74,922.35,925.74L922.35,925.74z"/>
		</g>
	</g>
	<g>
		<g>
			<path d="M975.25,1048.37c9.42,0,18.44-8.28,18-18c-0.44-9.75-7.91-18-18-18c-9.42,0-18.44,8.28-18,18
				C957.69,1040.13,965.16,1048.37,975.25,1048.37L975.25,1048.37z"/>
		</g>
	</g>
	<g>
		<g>
			<path d="M831.27,850.31c9.42,0,18.44-8.28,18-18c-0.44-9.75-7.91-18-18-18c-9.42,0-18.44,8.28-18,18
				C813.71,842.06,821.18,850.31,831.27,850.31L831.27,850.31z"/>
		</g>
	</g>
	<g>
		<g>
			<path d="M1012.65,1128.91c9.42,0,18.44-8.28,18-18c-0.44-9.75-7.91-18-18-18c-9.42,0-18.44,8.28-18,18
				C995.09,1120.67,1002.56,1128.91,1012.65,1128.91L1012.65,1128.91z"/>
		</g>
	</g>
	<g>
		<g>
			<path d="M1043.95,1218.59c9.42,0,18.44-8.28,18-18c-0.44-9.75-7.91-18-18-18c-9.42,0-18.44,8.28-18,18
				C1026.38,1210.35,1033.86,1218.59,1043.95,1218.59L1043.95,1218.59z"/>
		</g>
	</g>
	<g>
		<g>
			<path d="M1034.7,1048.45c9.42,0,18.44-8.28,18-18c-0.44-9.75-7.91-18-18-18c-9.42,0-18.44,8.28-18,18
				C1017.14,1040.2,1024.61,1048.45,1034.7,1048.45L1034.7,1048.45z"/>
		</g>
	</g>
	<g>
		<g>
			<path d="M1015.88,985.61c9.42,0,18.44-8.28,18-18c-0.44-9.75-7.91-18-18-18c-9.42,0-18.44,8.28-18,18
				C998.32,977.36,1005.79,985.61,1015.88,985.61L1015.88,985.61z"/>
		</g>
	</g>
	<g>
		<g>
			<path d="M913.65,806.2c9.42,0,18.44-8.28,18-18c-0.44-9.75-7.91-18-18-18c-9.42,0-18.44,8.28-18,18
				C896.09,797.95,903.56,806.2,913.65,806.2L913.65,806.2z"/>
		</g>
	</g>
	<g>
		<g>
			<path d="M817.98,747.54c9.42,0,18.44-8.28,18-18c-0.44-9.75-7.91-18-18-18c-9.42,0-18.44,8.28-18,18
				C800.42,739.29,807.89,747.54,817.98,747.54L817.98,747.54z"/>
		</g>
	</g>
	<g>
		<g>
			<path d="M722.54,753.83c9.42,0,18.44-8.28,18-18c-0.44-9.75-7.91-18-18-18c-9.42,0-18.44,8.28-18,18
				C704.98,745.58,712.45,753.83,722.54,753.83L722.54,753.83z"/>
		</g>
	</g>
	<g>
		<g>
			<path d="M578.15,686.37c9.42,0,18.44-8.28,18-18c-0.44-9.75-7.91-18-18-18c-9.42,0-18.44,8.28-18,18
				C560.59,678.13,568.06,686.37,578.15,686.37L578.15,686.37z"/>
		</g>
	</g>
	<g>
		<g>
			<path d="M661.71,709.27c9.42,0,18.44-8.28,18-18c-0.44-9.75-7.91-18-18-18c-9.42,0-18.44,8.28-18,18
				C644.14,701.02,651.61,709.27,661.71,709.27L661.71,709.27z"/>
		</g>
	</g>
	<g>
		<g>
			<path d="M646.35,628.71c9.42,0,18.44-8.28,18-18c-0.44-9.75-7.91-18-18-18c-9.42,0-18.44,8.28-18,18
				C628.79,620.46,636.26,628.71,646.35,628.71L646.35,628.71z"/>
		</g>
	</g>
	<g>
		<g>
			<path d="M510.98,729.35c9.42,0,18.44-8.28,18-18c-0.44-9.75-7.91-18-18-18c-9.42,0-18.44,8.28-18,18
				C493.41,721.1,500.89,729.35,510.98,729.35L510.98,729.35z"/>
		</g>
	</g>
	<g>
		<g>
			<path d="M442.28,777.89c9.42,0,18.44-8.28,18-18c-0.44-9.75-7.91-18-18-18c-9.42,0-18.44,8.28-18,18
				C424.71,769.65,432.19,777.89,442.28,777.89L442.28,777.89z"/>
		</g>
	</g>
	<g>
		<g>
			<path d="M371.58,806.43c9.42,0,18.44-8.28,18-18c-0.44-9.75-7.91-18-18-18c-9.42,0-18.44,8.28-18,18
				C354.01,798.18,361.49,806.43,371.58,806.43L371.58,806.43z"/>
		</g>
	</g>
	<g>
		<g>
			<path d="M235.21,888.83c9.42,0,18.44-8.28,18-18c-0.44-9.75-7.91-18-18-18c-9.42,0-18.44,8.28-18,18
				C217.65,880.58,225.12,888.83,235.21,888.83L235.21,888.83z"/>
		</g>
	</g>
	<g>
		<g>
			<path d="M241.92,995.47c9.42,0,18.44-8.28,18-18c-0.44-9.75-7.91-18-18-18c-9.42,0-18.44,8.28-18,18
				C224.35,987.22,231.83,995.47,241.92,995.47L241.92,995.47z"/>
		</g>
	</g>
	<g>
		<g>
			<path d="M236.45,1113.75c9.42,0,18.44-8.28,18-18c-0.44-9.75-7.91-18-18-18c-9.42,0-18.44,8.28-18,18
				C218.89,1105.5,226.36,1113.75,236.45,1113.75L236.45,1113.75z"/>
		</g>
	</g>
	<g>
		<g>
			<path d="M233.77,1232.79c9.42,0,18.44-8.28,18-18c-0.44-9.75-7.91-18-18-18c-9.42,0-18.44,8.28-18,18
				C216.21,1224.54,223.68,1232.79,233.77,1232.79L233.77,1232.79z"/>
		</g>
	</g>
	<g>
		<g>
			<path d="M252.34,1372.62c9.42,0,18.44-8.28,18-18c-0.44-9.75-7.91-18-18-18c-9.42,0-18.44,8.28-18,18
				C234.78,1364.37,242.25,1372.62,252.34,1372.62L252.34,1372.62z"/>
		</g>
	</g>
	<g>
		<g>
			<path d="M367.75,1443.18c9.42,0,18.44-8.28,18-18c-0.44-9.75-7.91-18-18-18c-9.42,0-18.44,8.28-18,18
				C350.19,1434.93,357.66,1443.18,367.75,1443.18L367.75,1443.18z"/>
		</g>
	</g>
	<g>
		<g>
			<path d="M454.07,1483.3c9.42,0,18.44-8.28,18-18c-0.44-9.75-7.91-18-18-18c-9.42,0-18.44,8.28-18,18
				C436.51,1475.05,443.98,1483.3,454.07,1483.3L454.07,1483.3z"/>
		</g>
	</g>
	<g>
		<g>
			<path d="M554.77,1569.29c9.42,0,18.44-8.28,18-18c-0.44-9.75-7.91-18-18-18c-9.42,0-18.44,8.28-18,18
				C537.21,1561.04,544.68,1569.29,554.77,1569.29L554.77,1569.29z"/>
		</g>
	</g>
	<g>
		<g>
			<path d="M665.15,1614.51c9.42,0,18.44-8.28,18-18c-0.44-9.75-7.91-18-18-18c-9.42,0-18.44,8.28-18,18
				C647.58,1606.26,655.06,1614.51,665.15,1614.51L665.15,1614.51z"/>
		</g>
	</g>
	<g>
		<g>
			<path d="M764.46,1590.82c9.42,0,18.44-8.28,18-18c-0.44-9.75-7.91-18-18-18c-9.42,0-18.44,8.28-18,18
				C746.9,1582.57,754.37,1590.82,764.46,1590.82L764.46,1590.82z"/>
		</g>
	</g>
	<g>
		<g>
			<path d="M867.14,1511.16c9.42,0,18.44-8.28,18-18c-0.44-9.75-7.91-18-18-18c-9.42,0-18.44,8.28-18,18
				C849.58,1502.92,857.05,1511.16,867.14,1511.16L867.14,1511.16z"/>
		</g>
	</g>
	<g>
		<g>
			<path d="M985.48,1467.24c9.42,0,18.44-8.28,18-18c-0.44-9.75-7.91-18-18-18c-9.42,0-18.44,8.28-18,18
				C967.92,1458.99,975.39,1467.24,985.48,1467.24L985.48,1467.24z"/>
		</g>
	</g>
	<g>
		<g>
			<path d="M214.73,1471.61c9.42,0,18.44-8.28,18-18c-0.44-9.75-7.91-18-18-18c-9.42,0-18.44,8.28-18,18
				C197.17,1463.36,204.64,1471.61,214.73,1471.61L214.73,1471.61z"/>
		</g>
	</g>
	<g>
		<g>
			<path d="M296.8,1467.15c9.42,0,18.44-8.28,18-18c-0.44-9.75-7.91-18-18-18c-9.42,0-18.44,8.28-18,18
				C279.24,1458.9,286.71,1467.15,296.8,1467.15L296.8,1467.15z"/>
		</g>
	</g>
	<g>
		<g>
			<path d="M365.34,1550.31c9.42,0,18.44-8.28,18-18c-0.44-9.75-7.91-18-18-18c-9.42,0-18.44,8.28-18,18
				C347.78,1542.06,355.25,1550.31,365.34,1550.31L365.34,1550.31z"/>
		</g>
	</g>
	<g>
		<g>
			<path d="M451.12,1614.24c9.42,0,18.44-8.28,18-18c-0.44-9.75-7.91-18-18-18c-9.42,0-18.44,8.28-18,18
				C433.56,1606,441.03,1614.24,451.12,1614.24L451.12,1614.24z"/>
		</g>
	</g>
	<g>
		<g>
			<path d="M564.76,1685.81c9.42,0,18.44-8.28,18-18c-0.44-9.75-7.91-18-18-18c-9.42,0-18.44,8.28-18,18
				C547.2,1677.56,554.67,1685.81,564.76,1685.81L564.76,1685.81z"/>
		</g>
	</g>
	<g>
		<g>
			<path d="M639.73,1685.4c9.42,0,18.44-8.28,18-18c-0.44-9.75-7.91-18-18-18c-9.42,0-18.44,8.28-18,18
				C622.17,1677.15,629.64,1685.4,639.73,1685.4L639.73,1685.4z"/>
		</g>
	</g>
	<g>
		<g>
			<path d="M547.95,1763.55c9.42,0,18.44-8.28,18-18c-0.44-9.75-7.91-18-18-18c-9.42,0-18.44,8.28-18,18
				C530.38,1755.3,537.86,1763.55,547.95,1763.55L547.95,1763.55z"/>
		</g>
	</g>
	<g>
		<g>
			<path d="M439.86,1709.97c9.42,0,18.44-8.28,18-18c-0.44-9.75-7.91-18-18-18c-9.42,0-18.44,8.28-18,18
				C422.3,1701.72,429.77,1709.97,439.86,1709.97L439.86,1709.97z"/>
		</g>
	</g>
	<g>
		<g>
			<path d="M315.05,1668.28c9.42,0,18.44-8.28,18-18c-0.44-9.75-7.91-18-18-18c-9.42,0-18.44,8.28-18,18
				C297.48,1660.03,304.95,1668.28,315.05,1668.28L315.05,1668.28z"/>
		</g>
	</g>
	<g>
		<g>
			<path d="M247.75,1607.91c9.42,0,18.44-8.28,18-18c-0.44-9.75-7.91-18-18-18c-9.42,0-18.44,8.28-18,18
				C230.18,1599.67,237.66,1607.91,247.75,1607.91L247.75,1607.91z"/>
		</g>
	</g>
	<g>
		<g>
			<path d="M212.36,1545.82c9.42,0,18.44-8.28,18-18c-0.44-9.75-7.91-18-18-18c-9.42,0-18.44,8.28-18,18
				C194.8,1537.57,202.27,1545.82,212.36,1545.82L212.36,1545.82z"/>
		</g>
	</g>
	<g>
		<g>
			<path d="M198.83,1633.44c9.42,0,18.44-8.28,18-18c-0.44-9.75-7.91-18-18-18c-9.42,0-18.44,8.28-18,18
				C181.27,1625.19,188.74,1633.44,198.83,1633.44L198.83,1633.44z"/>
		</g>
	</g>
	<g>
		<g>
			<path d="M240.76,1731.76c9.42,0,18.44-8.28,18-18c-0.44-9.75-7.91-18-18-18c-9.42,0-18.44,8.28-18,18
				C223.19,1723.51,230.66,1731.76,240.76,1731.76L240.76,1731.76z"/>
		</g>
	</g>
	<g>
		<g>
			<path d="M320.21,1796.95c9.42,0,18.44-8.28,18-18c-0.44-9.75-7.91-18-18-18c-9.42,0-18.44,8.28-18,18
				C302.64,1788.71,310.11,1796.95,320.21,1796.95L320.21,1796.95z"/>
		</g>
	</g>
	<g>
		<g>
			<path d="M426.31,1814.05c9.42,0,18.44-8.28,18-18c-0.44-9.75-7.91-18-18-18c-9.42,0-18.44,8.28-18,18
				C408.75,1805.81,416.22,1814.05,426.31,1814.05L426.31,1814.05z"/>
		</g>
	</g>
	<g>
		<g>
			<path d="M489.38,1813.37c9.42,0,18.44-8.28,18-18c-0.44-9.75-7.91-18-18-18c-9.42,0-18.44,8.28-18,18
				C471.81,1805.12,479.29,1813.37,489.38,1813.37L489.38,1813.37z"/>
		</g>
	</g>
	<g>
		<g>
			<path d="M1075.7,1427.58c9.42,0,18.44-8.28,18-18c-0.44-9.75-7.91-18-18-18c-9.42,0-18.44,8.28-18,18
				C1058.13,1419.34,1065.61,1427.58,1075.7,1427.58L1075.7,1427.58z"/>
		</g>
	</g>
	<g>
		<g>
			<path d="M1091.5,1348.07c9.42,0,18.44-8.28,18-18c-0.44-9.75-7.91-18-18-18c-9.42,0-18.44,8.28-18,18
				C1073.93,1339.83,1081.41,1348.07,1091.5,1348.07L1091.5,1348.07z"/>
		</g>
	</g>
	<g>
		<g>
			<path d="M1107.36,1219.17c9.42,0,18.44-8.28,18-18c-0.44-9.75-7.91-18-18-18c-9.42,0-18.44,8.28-18,18
				C1089.8,1210.92,1097.27,1219.17,1107.36,1219.17L1107.36,1219.17z"/>
		</g>
	</g>
	<g>
		<g>
			<path d="M1111.77,1132.05c9.42,0,18.44-8.28,18-18c-0.44-9.75-7.91-18-18-18c-9.42,0-18.44,8.28-18,18
				C1094.21,1123.8,1101.68,1132.05,1111.77,1132.05L1111.77,1132.05z"/>
		</g>
	</g>
	<g>
		<g>
			<path d="M1092.38,1044.39c9.42,0,18.44-8.28,18-18c-0.44-9.75-7.91-18-18-18c-9.42,0-18.44,8.28-18,18
				C1074.82,1036.14,1082.29,1044.39,1092.38,1044.39L1092.38,1044.39z"/>
		</g>
	</g>
	<g>
		<g>
			<path d="M995.82,883.18c9.42,0,18.44-8.28,18-18c-0.44-9.75-7.91-18-18-18c-9.42,0-18.44,8.28-18,18
				C978.26,874.93,985.73,883.18,995.82,883.18L995.82,883.18z"/>
		</g>
	</g>
	<g>
		<g>
			<path d="M1121.88,947.67c9.42,0,18.44-8.28,18-18c-0.44-9.75-7.91-18-18-18c-9.42,0-18.44,8.28-18,18
				C1104.32,939.42,1111.79,947.67,1121.88,947.67L1121.88,947.67z"/>
		</g>
	</g>
	<g>
		<g>
			<path d="M1063.2,877.69c9.42,0,18.44-8.28,18-18c-0.44-9.75-7.91-18-18-18c-9.42,0-18.44,8.28-18,18
				C1045.64,869.45,1053.11,877.69,1063.2,877.69L1063.2,877.69z"/>
		</g>
	</g>
	<g>
		<g>
			<path d="M1007.07,803.92c9.42,0,18.44-8.28,18-18c-0.44-9.75-7.91-18-18-18c-9.42,0-18.44,8.28-18,18
				C989.5,795.67,996.97,803.92,1007.07,803.92L1007.07,803.92z"/>
		</g>
	</g>
	<g>
		<g>
			<path d="M927.39,717.7c9.42,0,18.44-8.28,18-18c-0.44-9.75-7.91-18-18-18c-9.42,0-18.44,8.28-18,18
				C909.83,709.46,917.3,717.7,927.39,717.7L927.39,717.7z"/>
		</g>
	</g>
	<g>
		<g>
			<path d="M789.43,652.95c9.42,0,18.44-8.28,18-18c-0.44-9.75-7.91-18-18-18c-9.42,0-18.44,8.28-18,18
				C771.87,644.7,779.34,652.95,789.43,652.95L789.43,652.95z"/>
		</g>
	</g>
	<g>
		<g>
			<path d="M504.79,615.36c9.42,0,18.44-8.28,18-18c-0.44-9.75-7.91-18-18-18c-9.42,0-18.44,8.28-18,18
				C487.22,607.12,494.69,615.36,504.79,615.36L504.79,615.36z"/>
		</g>
	</g>
	<g>
		<g>
			<path d="M399.61,665.89c9.42,0,18.44-8.28,18-18c-0.44-9.75-7.91-18-18-18c-9.42,0-18.44,8.28-18,18
				C382.05,657.64,389.52,665.89,399.61,665.89L399.61,665.89z"/>
		</g>
	</g>
	<g>
		<g>
			<path d="M316.22,713.4c9.42,0,18.44-8.28,18-18c-0.44-9.75-7.91-18-18-18c-9.42,0-18.44,8.28-18,18
				C298.66,705.16,306.13,713.4,316.22,713.4L316.22,713.4z"/>
		</g>
	</g>
	<g>
		<g>
			<path d="M221.92,778.89c9.42,0,18.44-8.28,18-18c-0.44-9.75-7.91-18-18-18c-9.42,0-18.44,8.28-18,18
				C204.36,770.64,211.83,778.89,221.92,778.89L221.92,778.89z"/>
		</g>
	</g>
	<g>
		<g>
			<path d="M215.17,705.18c9.42,0,18.44-8.28,18-18c-0.44-9.75-7.91-18-18-18c-9.42,0-18.44,8.28-18,18
				C197.61,696.93,205.08,705.18,215.17,705.18L215.17,705.18z"/>
		</g>
	</g>
	<g>
		<g>
			<path d="M323.69,615.14c9.42,0,18.44-8.28,18-18c-0.44-9.75-7.91-18-18-18c-9.42,0-18.44,8.28-18,18
				C306.13,606.89,313.6,615.14,323.69,615.14L323.69,615.14z"/>
		</g>
	</g>
	<g>
		<g>
			<path d="M423.03,574.99c9.42,0,18.44-8.28,18-18c-0.44-9.75-7.91-18-18-18c-9.42,0-18.44,8.28-18,18
				C405.46,566.74,412.93,574.99,423.03,574.99L423.03,574.99z"/>
		</g>
	</g>
	<g>
		<g>
			<path d="M526.94,518.13c9.42,0,18.44-8.28,18-18c-0.44-9.75-7.91-18-18-18c-9.42,0-18.44,8.28-18,18
				C509.38,509.88,516.85,518.13,526.94,518.13L526.94,518.13z"/>
		</g>
	</g>
	<g>
		<g>
			<path d="M596.8,558.23c9.42,0,18.44-8.28,18-18c-0.44-9.75-7.91-18-18-18c-9.42,0-18.44,8.28-18,18
				C579.23,549.99,586.71,558.23,596.8,558.23L596.8,558.23z"/>
		</g>
	</g>
	<g>
		<g>
			<path d="M525.5,457.85c9.42,0,18.44-8.28,18-18c-0.44-9.75-7.91-18-18-18c-9.42,0-18.44,8.28-18,18
				C507.93,449.6,515.4,457.85,525.5,457.85L525.5,457.85z"/>
		</g>
	</g>
	<g>
		<g>
			<path d="M429.5,458.49c9.42,0,18.44-8.28,18-18c-0.44-9.75-7.91-18-18-18c-9.42,0-18.44,8.28-18,18
				C411.94,450.24,419.41,458.49,429.5,458.49L429.5,458.49z"/>
		</g>
	</g>
	<g>
		<g>
			<path d="M367.16,489.31c9.42,0,18.44-8.28,18-18c-0.44-9.75-7.91-18-18-18c-9.42,0-18.44,8.28-18,18
				C349.59,481.06,357.06,489.31,367.16,489.31L367.16,489.31z"/>
		</g>
	</g>
	<g>
		<g>
			<path d="M270.85,534.78c9.42,0,18.44-8.28,18-18c-0.44-9.75-7.91-18-18-18c-9.42,0-18.44,8.28-18,18
				C253.29,526.54,260.76,534.78,270.85,534.78L270.85,534.78z"/>
		</g>
	</g>
	<g>
		<g>
			<path d="M190.72,608.64c9.42,0,18.44-8.28,18-18c-0.44-9.75-7.91-18-18-18c-9.42,0-18.44,8.28-18,18
				C173.16,600.4,180.63,608.64,190.72,608.64L190.72,608.64z"/>
		</g>
	</g>
	<g>
		<g>
			<path d="M175.66,499.71c9.42,0,18.44-8.28,18-18c-0.44-9.75-7.91-18-18-18c-9.42,0-18.44,8.28-18,18
				C158.1,491.47,165.57,499.71,175.66,499.71L175.66,499.71z"/>
		</g>
	</g>
	<g>
		<g>
			<path d="M262.91,405.35c9.42,0,18.44-8.28,18-18c-0.44-9.75-7.91-18-18-18c-9.42,0-18.44,8.28-18,18
				C245.34,397.1,252.82,405.35,262.91,405.35L262.91,405.35z"/>
		</g>
	</g>
	<g>
		<g>
			<path d="M376.91,382.69c9.42,0,18.44-8.28,18-18c-0.44-9.75-7.91-18-18-18c-9.42,0-18.44,8.28-18,18
				C359.35,374.44,366.82,382.69,376.91,382.69L376.91,382.69z"/>
		</g>
	</g>
	<g>
		<g>
			<path d="M430.86,382.51c9.42,0,18.44-8.28,18-18c-0.44-9.75-7.91-18-18-18c-9.42,0-18.44,8.28-18,18
				C413.3,374.26,420.77,382.51,430.86,382.51L430.86,382.51z"/>
		</g>
	</g>
	<g>
		<g>
			<path d="M1210.45,1012.37c9.42,0,18.44-8.28,18-18c-0.44-9.75-7.91-18-18-18c-9.42,0-18.44,8.28-18,18
				C1192.89,1004.12,1200.36,1012.37,1210.45,1012.37L1210.45,1012.37z"/>
		</g>
	</g>
	<g>
		<g>
			<path d="M1185.49,1125.3c9.42,0,18.44-8.28,18-18c-0.44-9.75-7.91-18-18-18c-9.42,0-18.44,8.28-18,18
				C1167.92,1117.05,1175.4,1125.3,1185.49,1125.3L1185.49,1125.3z"/>
		</g>
	</g>
	<g>
		<g>
			<path d="M1172.7,1226.6c9.42,0,18.44-8.28,18-18c-0.44-9.75-7.91-18-18-18c-9.42,0-18.44,8.28-18,18
				C1155.14,1218.35,1162.61,1226.6,1172.7,1226.6L1172.7,1226.6z"/>
		</g>
	</g>
	<g>
		<g>
			<path d="M1161.97,1298.52c9.42,0,18.44-8.28,18-18c-0.44-9.75-7.91-18-18-18c-9.42,0-18.44,8.28-18,18
				C1144.41,1290.27,1151.88,1298.52,1161.97,1298.52L1161.97,1298.52z"/>
		</g>
	</g>
	<g>
		<g>
			<path d="M1166.18,1376.03c9.42,0,18.44-8.28,18-18c-0.44-9.75-7.91-18-18-18c-9.42,0-18.44,8.28-18,18
				C1148.62,1367.78,1156.09,1376.03,1166.18,1376.03L1166.18,1376.03z"/>
		</g>
	</g>
	<g>
		<g>
			<path d="M1247.3,1320.4c9.42,0,18.44-8.28,18-18c-0.44-9.75-7.91-18-18-18c-9.42,0-18.44,8.28-18,18
				C1229.74,1312.16,1237.21,1320.4,1247.3,1320.4L1247.3,1320.4z"/>
		</g>
	</g>
	<g>
		<g>
			<path d="M1288.23,1198.37c9.42,0,18.44-8.28,18-18c-0.44-9.75-7.91-18-18-18c-9.42,0-18.44,8.28-18,18
				C1270.67,1190.13,1278.14,1198.37,1288.23,1198.37L1288.23,1198.37z"/>
		</g>
	</g>
	<g>
		<g>
			<path d="M1285.57,1098.83c9.42,0,18.44-8.28,18-18c-0.44-9.75-7.91-18-18-18c-9.42,0-18.44,8.28-18,18
				C1268,1090.58,1275.48,1098.83,1285.57,1098.83L1285.57,1098.83z"/>
		</g>
	</g>
	<g>
		<g>
			<path d="M1251.83,932.38c9.42,0,18.44-8.28,18-18c-0.44-9.75-7.91-18-18-18c-9.42,0-18.44,8.28-18,18
				C1234.27,924.13,1241.74,932.38,1251.83,932.38L1251.83,932.38z"/>
		</g>
	</g>
	<g>
		<g>
			<path d="M1170.9,839.83c9.42,0,18.44-8.28,18-18c-0.44-9.75-7.91-18-18-18c-9.42,0-18.44,8.28-18,18
				C1153.33,831.59,1160.8,839.83,1170.9,839.83L1170.9,839.83z"/>
		</g>
	</g>
	<g>
		<g>
			<path d="M1306.22,990.7c9.42,0,18.44-8.28,18-18c-0.44-9.75-7.91-18-18-18c-9.42,0-18.44,8.28-18,18
				C1288.65,982.46,1296.12,990.7,1306.22,990.7L1306.22,990.7z"/>
		</g>
	</g>
	<g>
		<g>
			<path d="M1336.71,912.22c9.42,0,18.44-8.28,18-18c-0.44-9.75-7.91-18-18-18c-9.42,0-18.44,8.28-18,18
				C1319.14,903.98,1326.62,912.22,1336.71,912.22L1336.71,912.22z"/>
		</g>
	</g>
	<g>
		<g>
			<path d="M1390,1034.62c9.42,0,18.44-8.28,18-18c-0.44-9.75-7.91-18-18-18c-9.42,0-18.44,8.28-18,18
				C1372.44,1026.38,1379.91,1034.62,1390,1034.62L1390,1034.62z"/>
		</g>
	</g>
	<g>
		<g>
			<path d="M1375.17,1148.84c9.42,0,18.44-8.28,18-18c-0.44-9.75-7.91-18-18-18c-9.42,0-18.44,8.28-18,18
				C1357.6,1140.59,1365.08,1148.84,1375.17,1148.84L1375.17,1148.84z"/>
		</g>
	</g>
	<g>
		<g>
			<path d="M1372.98,1276.99c9.42,0,18.44-8.28,18-18c-0.44-9.75-7.91-18-18-18c-9.42,0-18.44,8.28-18,18
				C1355.42,1268.75,1362.89,1276.99,1372.98,1276.99L1372.98,1276.99z"/>
		</g>
	</g>
	<g>
		<g>
			<path d="M1483.75,1211.53c9.42,0,18.44-8.28,18-18c-0.44-9.75-7.91-18-18-18c-9.42,0-18.44,8.28-18,18
				C1466.18,1203.28,1473.66,1211.53,1483.75,1211.53L1483.75,1211.53z"/>
		</g>
	</g>
	<g>
		<g>
			<path d="M1487.46,1077.8c9.42,0,18.44-8.28,18-18c-0.44-9.75-7.91-18-18-18c-9.42,0-18.44,8.28-18,18
				C1469.9,1069.56,1477.37,1077.8,1487.46,1077.8L1487.46,1077.8z"/>
		</g>
	</g>
	<g>
		<g>
			<path d="M1476.19,971.41c9.42,0,18.44-8.28,18-18c-0.44-9.75-7.91-18-18-18c-9.42,0-18.44,8.28-18,18
				C1458.63,963.16,1466.1,971.41,1476.19,971.41L1476.19,971.41z"/>
		</g>
	</g>
	<g>
		<g>
			<path d="M1518.3,1123.68c9.42,0,18.44-8.28,18-18c-0.44-9.75-7.91-18-18-18c-9.42,0-18.44,8.28-18,18
				C1500.74,1115.44,1508.21,1123.68,1518.3,1123.68L1518.3,1123.68z"/>
		</g>
	</g>
</g>
</svg>
